<svg id="visual" viewBox="0 0 960 540" width="960" height="540" xmlns="http://www.w3.org/2000/svg" xmlns:xlink="http://www.w3.org/1999/xlink" version="1.1"><rect x="0" y="0" width="960" height="540" fill="#191919"></rect><defs><linearGradient id="grad1_0" x1="43.8%" y1="0%" x2="100%" y2="100%"><stop offset="14.444444444444446%" stop-color="#da3f67" stop-opacity="1"></stop><stop offset="85.55555555555554%" stop-color="#da3f67" stop-opacity="1"></stop></linearGradient></defs><defs><linearGradient id="grad1_1" x1="43.8%" y1="0%" x2="100%" y2="100%"><stop offset="14.444444444444446%" stop-color="#da3f67" stop-opacity="1"></stop><stop offset="85.55555555555554%" stop-color="#bc3c5b" stop-opacity="1"></stop></linearGradient></defs><defs><linearGradient id="grad1_2" x1="43.8%" y1="0%" x2="100%" y2="100%"><stop offset="14.444444444444446%" stop-color="#9f384f" stop-opacity="1"></stop><stop offset="85.55555555555554%" stop-color="#bc3c5b" stop-opacity="1"></stop></linearGradient></defs><defs><linearGradient id="grad1_3" x1="43.8%" y1="0%" x2="100%" y2="100%"><stop offset="14.444444444444446%" stop-color="#9f384f" stop-opacity="1"></stop><stop offset="85.55555555555554%" stop-color="#823343" stop-opacity="1"></stop></linearGradient></defs><defs><linearGradient id="grad1_4" x1="43.8%" y1="0%" x2="100%" y2="100%"><stop offset="14.444444444444446%" stop-color="#672e38" stop-opacity="1"></stop><stop offset="85.55555555555554%" stop-color="#823343" stop-opacity="1"></stop></linearGradient></defs><defs><linearGradient id="grad1_5" x1="43.8%" y1="0%" x2="100%" y2="100%"><stop offset="14.444444444444446%" stop-color="#672e38" stop-opacity="1"></stop><stop offset="85.55555555555554%" stop-color="#4c282d" stop-opacity="1"></stop></linearGradient></defs><defs><linearGradient id="grad1_6" x1="43.8%" y1="0%" x2="100%" y2="100%"><stop offset="14.444444444444446%" stop-color="#322123" stop-opacity="1"></stop><stop offset="85.55555555555554%" stop-color="#4c282d" stop-opacity="1"></stop></linearGradient></defs><defs><linearGradient id="grad1_7" x1="43.8%" y1="0%" x2="100%" y2="100%"><stop offset="14.444444444444446%" stop-color="#322123" stop-opacity="1"></stop><stop offset="85.55555555555554%" stop-color="#191919" stop-opacity="1"></stop></linearGradient></defs><defs><linearGradient id="grad2_0" x1="0%" y1="0%" x2="56.3%" y2="100%"><stop offset="14.444444444444446%" stop-color="#da3f67" stop-opacity="1"></stop><stop offset="85.55555555555554%" stop-color="#da3f67" stop-opacity="1"></stop></linearGradient></defs><defs><linearGradient id="grad2_1" x1="0%" y1="0%" x2="56.3%" y2="100%"><stop offset="14.444444444444446%" stop-color="#bc3c5b" stop-opacity="1"></stop><stop offset="85.55555555555554%" stop-color="#da3f67" stop-opacity="1"></stop></linearGradient></defs><defs><linearGradient id="grad2_2" x1="0%" y1="0%" x2="56.3%" y2="100%"><stop offset="14.444444444444446%" stop-color="#bc3c5b" stop-opacity="1"></stop><stop offset="85.55555555555554%" stop-color="#9f384f" stop-opacity="1"></stop></linearGradient></defs><defs><linearGradient id="grad2_3" x1="0%" y1="0%" x2="56.3%" y2="100%"><stop offset="14.444444444444446%" stop-color="#823343" stop-opacity="1"></stop><stop offset="85.55555555555554%" stop-color="#9f384f" stop-opacity="1"></stop></linearGradient></defs><defs><linearGradient id="grad2_4" x1="0%" y1="0%" x2="56.3%" y2="100%"><stop offset="14.444444444444446%" stop-color="#823343" stop-opacity="1"></stop><stop offset="85.55555555555554%" stop-color="#672e38" stop-opacity="1"></stop></linearGradient></defs><defs><linearGradient id="grad2_5" x1="0%" y1="0%" x2="56.3%" y2="100%"><stop offset="14.444444444444446%" stop-color="#4c282d" stop-opacity="1"></stop><stop offset="85.55555555555554%" stop-color="#672e38" stop-opacity="1"></stop></linearGradient></defs><defs><linearGradient id="grad2_6" x1="0%" y1="0%" x2="56.3%" y2="100%"><stop offset="14.444444444444446%" stop-color="#4c282d" stop-opacity="1"></stop><stop offset="85.55555555555554%" stop-color="#322123" stop-opacity="1"></stop></linearGradient></defs><defs><linearGradient id="grad2_7" x1="0%" y1="0%" x2="56.3%" y2="100%"><stop offset="14.444444444444446%" stop-color="#191919" stop-opacity="1"></stop><stop offset="85.55555555555554%" stop-color="#322123" stop-opacity="1"></stop></linearGradient></defs><g transform="translate(960, 0)"><path d="M0 243C-21.5 242.6 -43 242.3 -62.9 234.7C-82.8 227.1 -101 212.3 -112.5 194.9C-124 177.4 -128.7 157.2 -146.4 146.4C-164 135.6 -194.6 134.2 -209.6 121C-224.6 107.8 -224 82.9 -227 60.8C-230 38.7 -236.5 19.3 -243 0L0 0Z" fill="#261d1e"></path><path d="M0 212.6C-18.8 212.3 -37.6 212 -55 205.4C-72.4 198.8 -88.4 185.8 -98.4 170.5C-108.5 155.2 -112.6 137.5 -128.1 128.1C-143.5 118.6 -170.3 117.4 -183.4 105.9C-196.5 94.4 -196 72.6 -198.6 53.2C-201.2 33.9 -206.9 16.9 -212.6 0L0 0Z" fill="#3f2428"></path><path d="M0 182.3C-16.1 182 -32.3 181.7 -47.2 176C-62.1 170.4 -75.8 159.3 -84.4 146.1C-93 133 -96.5 117.9 -109.8 109.8C-123 101.7 -145.9 100.6 -157.2 90.8C-168.4 80.9 -168 62.2 -170.2 45.6C-172.5 29 -177.4 14.5 -182.2 0L0 0Z" fill="#592b33"></path><path d="M0 151.9C-13.4 151.7 -26.9 151.4 -39.3 146.7C-51.7 142 -63.1 132.7 -70.3 121.8C-77.5 110.9 -80.5 98.2 -91.5 91.5C-102.5 84.7 -121.6 83.8 -131 75.6C-140.4 67.4 -140 51.8 -141.9 38C-143.7 24.2 -147.8 12.1 -151.9 0L0 0Z" fill="#74313e"></path><path d="M0 121.5C-10.8 121.3 -21.5 121.1 -31.4 117.4C-41.4 113.6 -50.5 106.2 -56.2 97.4C-62 88.7 -64.4 78.6 -73.2 73.2C-82 67.8 -97.3 67.1 -104.8 60.5C-112.3 53.9 -112 41.5 -113.5 30.4C-115 19.3 -118.2 9.7 -121.5 0L0 0Z" fill="#903649"></path><path d="M0 91.1C-8.1 91 -16.1 90.9 -23.6 88C-31 85.2 -37.9 79.6 -42.2 73.1C-46.5 66.5 -48.3 58.9 -54.9 54.9C-61.5 50.8 -73 50.3 -78.6 45.4C-84.2 40.4 -84 31.1 -85.1 22.8C-86.2 14.5 -88.7 7.3 -91.1 0L0 0Z" fill="#ad3a55"></path><path d="M0 60.8C-5.4 60.7 -10.8 60.6 -15.7 58.7C-20.7 56.8 -25.3 53.1 -28.1 48.7C-31 44.3 -32.2 39.3 -36.6 36.6C-41 33.9 -48.6 33.5 -52.4 30.3C-56.1 27 -56 20.7 -56.7 15.2C-57.5 9.7 -59.1 4.8 -60.7 0L0 0Z" fill="#cb3d61"></path><path d="M0 30.4C-2.7 30.3 -5.4 30.3 -7.9 29.3C-10.3 28.4 -12.6 26.5 -14.1 24.4C-15.5 22.2 -16.1 19.6 -18.3 18.3C-20.5 16.9 -24.3 16.8 -26.2 15.1C-28.1 13.5 -28 10.4 -28.4 7.6C-28.7 4.8 -29.6 2.4 -30.4 0L0 0Z" fill="#da3f67"></path></g><g transform="translate(0, 540)"><path d="M0 -243C19.2 -229.7 38.5 -216.4 54.9 -204.8C71.3 -193.2 84.9 -183.2 101.5 -175.8C118.1 -168.4 137.8 -163.6 153.4 -153.4C169 -143.3 180.6 -127.9 194.9 -112.5C209.2 -97.1 226.2 -81.6 234.7 -62.9C243.2 -44.1 243.1 -22.1 243 0L0 0Z" fill="#261d1e"></path><path d="M0 -212.6C16.8 -201 33.7 -189.4 48 -179.2C62.4 -169 74.3 -160.3 88.8 -153.8C103.4 -147.4 120.6 -143.1 134.3 -134.3C147.9 -125.4 158 -111.9 170.5 -98.4C183 -84.9 198 -71.4 205.4 -55C212.8 -38.6 212.7 -19.3 212.6 0L0 0Z" fill="#3f2428"></path><path d="M0 -182.2C14.4 -172.3 28.8 -162.3 41.2 -153.6C53.5 -144.9 63.6 -137.4 76.1 -131.9C88.6 -126.3 103.4 -122.7 115.1 -115.1C126.8 -107.5 135.4 -95.9 146.1 -84.4C156.9 -72.8 169.7 -61.2 176 -47.2C182.4 -33.1 182.3 -16.6 182.3 0L0 0Z" fill="#592b33"></path><path d="M0 -151.9C12 -143.6 24 -135.3 34.3 -128C44.5 -120.7 53 -114.5 63.4 -109.9C73.8 -105.3 86.1 -102.2 95.9 -95.9C105.7 -89.6 112.8 -79.9 121.8 -70.3C130.7 -60.7 141.4 -51 146.7 -39.3C152 -27.6 151.9 -13.8 151.9 0L0 0Z" fill="#74313e"></path><path d="M0 -121.5C9.6 -114.9 19.2 -108.2 27.4 -102.4C35.6 -96.6 42.4 -91.6 50.7 -87.9C59.1 -84.2 68.9 -81.8 76.7 -76.7C84.5 -71.7 90.3 -64 97.4 -56.3C104.6 -48.5 113.1 -40.8 117.4 -31.4C121.6 -22.1 121.6 -11 121.5 0L0 0Z" fill="#903649"></path><path d="M0 -91.1C7.2 -86.1 14.4 -81.2 20.6 -76.8C26.7 -72.4 31.8 -68.7 38.1 -65.9C44.3 -63.2 51.7 -61.3 57.5 -57.5C63.4 -53.7 67.7 -48 73.1 -42.2C78.4 -36.4 84.8 -30.6 88 -23.6C91.2 -16.6 91.2 -8.3 91.1 0L0 0Z" fill="#ad3a55"></path><path d="M0 -60.7C4.8 -57.4 9.6 -54.1 13.7 -51.2C17.8 -48.3 21.2 -45.8 25.4 -44C29.5 -42.1 34.5 -40.9 38.4 -38.4C42.3 -35.8 45.1 -32 48.7 -28.1C52.3 -24.3 56.6 -20.4 58.7 -15.7C60.8 -11 60.8 -5.5 60.8 0L0 0Z" fill="#cb3d61"></path><path d="M0 -30.4C2.4 -28.7 4.8 -27.1 6.9 -25.6C8.9 -24.1 10.6 -22.9 12.7 -22C14.8 -21.1 17.2 -20.4 19.2 -19.2C21.1 -17.9 22.6 -16 24.4 -14.1C26.1 -12.1 28.3 -10.2 29.3 -7.9C30.4 -5.5 30.4 -2.8 30.4 0L0 0Z" fill="#da3f67"></path></g></svg>