<svg id="visual" viewBox="0 0 900 150" width="900" height="150" xmlns="http://www.w3.org/2000/svg" xmlns:xlink="http://www.w3.org/1999/xlink" version="1.1"><path d="M0 45L12.5 43C25 41 50 37 75 36.7C100 36.3 125 39.7 150 38.2C175 36.7 200 30.3 225 26.2C250 22 275 20 300 22.5C325 25 350 32 375 35.7C400 39.3 425 39.7 450 43C475 46.3 500 52.7 525 55.7C550 58.7 575 58.3 600 59.3C625 60.3 650 62.7 675 63C700 63.3 725 61.7 750 57.2C775 52.7 800 45.3 825 42.5C850 39.7 875 41.3 887.5 42.2L900 43L900 151L887.5 151C875 151 850 151 825 151C800 151 775 151 750 151C725 151 700 151 675 151C650 151 625 151 600 151C575 151 550 151 525 151C500 151 475 151 450 151C425 151 400 151 375 151C350 151 325 151 300 151C275 151 250 151 225 151C200 151 175 151 150 151C125 151 100 151 75 151C50 151 25 151 12.5 151L0 151Z" fill="#fa7268"></path><path d="M0 64L12.5 67C25 70 50 76 75 74.8C100 73.7 125 65.3 150 59.3C175 53.3 200 49.7 225 53.2C250 56.7 275 67.3 300 74.3C325 81.3 350 84.7 375 82.3C400 80 425 72 450 67.5C475 63 500 62 525 63.3C550 64.7 575 68.3 600 68C625 67.7 650 63.3 675 60.8C700 58.3 725 57.7 750 60.8C775 64 800 71 825 69.2C850 67.3 875 56.7 887.5 51.3L900 46L900 151L887.5 151C875 151 850 151 825 151C800 151 775 151 750 151C725 151 700 151 675 151C650 151 625 151 600 151C575 151 550 151 525 151C500 151 475 151 450 151C425 151 400 151 375 151C350 151 325 151 300 151C275 151 250 151 225 151C200 151 175 151 150 151C125 151 100 151 75 151C50 151 25 151 12.5 151L0 151Z" fill="#eb5967"></path><path d="M0 100L12.5 102.3C25 104.7 50 109.3 75 107C100 104.7 125 95.3 150 88.5C175 81.7 200 77.3 225 77.5C250 77.7 275 82.3 300 85.5C325 88.7 350 90.3 375 94.3C400 98.3 425 104.7 450 107.8C475 111 500 111 525 110C550 109 575 107 600 101.7C625 96.3 650 87.7 675 87.8C700 88 725 97 750 102.7C775 108.3 800 110.7 825 106.5C850 102.3 875 91.7 887.5 86.3L900 81L900 151L887.5 151C875 151 850 151 825 151C800 151 775 151 750 151C725 151 700 151 675 151C650 151 625 151 600 151C575 151 550 151 525 151C500 151 475 151 450 151C425 151 400 151 375 151C350 151 325 151 300 151C275 151 250 151 225 151C200 151 175 151 150 151C125 151 100 151 75 151C50 151 25 151 12.5 151L0 151Z" fill="#da3f67"></path><path d="M0 127L12.5 127.8C25 128.7 50 130.3 75 130.7C100 131 125 130 150 129.5C175 129 200 129 225 128.2C250 127.3 275 125.7 300 125C325 124.3 350 124.7 375 126.3C400 128 425 131 450 132.3C475 133.7 500 133.3 525 132.7C550 132 575 131 600 127.8C625 124.7 650 119.3 675 116.8C700 114.3 725 114.7 750 112.8C775 111 800 107 825 106.7C850 106.3 875 109.7 887.5 111.3L900 113L900 151L887.5 151C875 151 850 151 825 151C800 151 775 151 750 151C725 151 700 151 675 151C650 151 625 151 600 151C575 151 550 151 525 151C500 151 475 151 450 151C425 151 400 151 375 151C350 151 325 151 300 151C275 151 250 151 225 151C200 151 175 151 150 151C125 151 100 151 75 151C50 151 25 151 12.5 151L0 151Z" fill="#c62368"></path></svg>